{"title":"Shrek forever after [BDRip-720p-Mkv-Ita/Eng/Esp/Deu-Ac3-MultiSub","uid":6152394,"size":4696313528,"categoryP":"video","categoryS":"hd___movies","magnet":"?xt=urn:btih:b37b5f441967523cd71d40f94fe8c393366248f1&amp;dn=Shrek+forever+after+%5BBDRip-720p-Mkv-Ita%2FEng%2FEsp%2FDeu-Ac3-MultiSub&amp;tr=udp%3A%2F%2Ftracker.openbittorrent.com%3A80&amp;tr=udp%3A%2F%2Fopen.demonii.com%3A1337&amp;tr=udp%3A%2F%2Ftracker.coppersurfer.tk%3A6969&amp;tr=udp%3A%2F%2Fexodus.desync.com%3A6969","seeders":0,"leechers":4,"uploader":"maxneb","files":1,"time":1296918822,"description":"Shrek forever after [BDRip-720p-Mkv-Ita/Eng/Esp/Deu-Ac3-MultiSub][Nautilus-BT]\n\n\n\n\n\nGeneral\nComplete name                    : C:\\Shrek e vissero felici e contenti - Shrek forever after [BDRip-720p-MultiLang-MultiSub-Chapters][RiP By MaX].mkv\nFormat                           : Matroska\nFile size                        : 4.37 GiB\nDuration                         : 1h 33mn\nOverall bit rate                 : 6 725 Kbps\nEncoded date                     : UTC 2010-12-08 20:35:32\nWriting application              : mkvmerge v4.4.0 ('Die Wiederkehr') built on Oct 31 2010 21:52:48\nWriting library                  : libebml v1.0.0 + libmatroska v1.0.0\n\nVideo\nID                               : 1\nFormat                           : AVC\nFormat/Info                      : Advanced Video Codec\nFormat profile                   : &lt;a class=&quot;__cf_email__&quot; href=&quot;/cdn-cgi/l/email-protection&quot; data-cfemail=&quot;1b53727c735b572f352a&quot;&gt;[email&amp;#160;protected]&lt;/a&gt;&lt;script cf-hash='f9e31' type=&quot;text/javascript&quot;&gt;\n/* &lt;![CDATA[ */!function(){try{var t=&quot;currentScript&quot;in document?document.currentScript:function(){for(var t=document.getElementsByTagName(&quot;script&quot;),e=t.length;e--;)if(t[e].getAttribute(&quot;cf-hash&quot;))return t[e]}();if(t&amp;&amp;t.previousSibling){var e,r,n,i,c=t.previousSibling,a=c.getAttribute(&quot;data-cfemail&quot;);if(a){for(e=&quot;&quot;,r=parseInt(a.substr(0,2),16),n=2;a.length-n;n+=2)i=parseInt(a.substr(n,2),16)^r,e+=String.fromCharCode(i);e=document.createTextNode(e),c.parentNode.replaceChild(e,c)}}}catch(u){}}();/* ]]&gt; */&lt;/script&gt;\nFormat settings, CABAC           : Yes\nFormat settings, ReFrames        : 5 frames\nMuxing mode                      : Container profile=&lt;a class=&quot;__cf_email__&quot; href=&quot;/cdn-cgi/l/email-protection&quot; data-cfemail=&quot;fbae959095948c95bbcfd5ca&quot;&gt;[email&amp;#160;protected]&lt;/a&gt;&lt;script cf-hash='f9e31' type=&quot;text/javascript&quot;&gt;\n/* &lt;![CDATA[ */!function(){try{var t=&quot;currentScript&quot;in document?document.currentScript:function(){for(var t=document.getElementsByTagName(&quot;script&quot;),e=t.length;e--;)if(t[e].getAttribute(&quot;cf-hash&quot;))return t[e]}();if(t&amp;&amp;t.previousSibling){var e,r,n,i,c=t.previousSibling,a=c.getAttribute(&quot;data-cfemail&quot;);if(a){for(e=&quot;&quot;,r=parseInt(a.substr(0,2),16),n=2;a.length-n;n+=2)i=parseInt(a.substr(n,2),16)^r,e+=String.fromCharCode(i);e=document.createTextNode(e),c.parentNode.replaceChild(e,c)}}}catch(u){}}();/* ]]&gt; */&lt;/script&gt;\nCodec ID                         : V_MPEG4/ISO/AVC\nDuration                         : 1h 33mn\nBit rate                         : 4 165 Kbps\nWidth                            : 1 280 pixels\nHeight                           : 536 pixels\nDisplay aspect ratio             : 2.35:1\nFrame rate                       : 23.976 fps\nColor space                      : YUV\nChroma subsampling               : 4:2:0\nBit depth                        : 8 bits\nScan type                        : Progressive\nBits/(Pixel*Frame)               : 0.253\nStream size                      : 2.62 GiB (60%)\nTitle                            : Shrek forever after [BDRip 720p][RiP By MaX]\nWriting library                  : x264 core 110 r1804 e89c4cf\nEncoding settings                : cabac=1 / ref=5 / deblock=1:1:0 / analyse=0x3:0x133 / me=hex / subme=7 / psy=1 / psy_rd=1.00:0.00 / mixed_ref=1 / me_range=16 / chroma_me=1 / trellis=1 / 8x8dct=1 / cqm=0 / deadzone=21,11 / fast_pskip=0 / chroma_qp_offset=-2 / threads=6 / sliced_threads=0 / nr=0 / decimate=1 / interlaced=0 / constrained_intra=0 / bframes=3 / b_pyramid=2 / b_adapt=2 / b_bias=0 / direct=3 / weightb=1 / open_gop=0 / weightp=1 / keyint=240 / keyint_min=23 / scenecut=40 / intra_refresh=0 / rc_lookahead=40 / rc=2pass / mbtree=1 / bitrate=4165 / ratetol=1.0 / qcomp=0.60 / qpmin=10 / qpmax=51 / qpstep=4 / cplxblur=20.0 / qblur=0.5 / ip_ratio=1.40 / aq=1:1.00\nLanguage                         : Italian\n\nAudio #1\nID                               : 2\nFormat                           : AC-3\nFormat/Info                      : Audio Coding 3\nMode extension                   : CM (complete main)\nCodec ID                         : A_AC3\nDuration                         : 1h 33mn\nBit rate mode                    : Constant\nBit rate                         : 640 Kbps\nChannel(s)                       : 6 channels\nChannel positions                : Front: L C R, Side: L R, LFE\nSampling rate                    : 48.0 KHz\nBit depth                        : 16 bits\nStream size                      : 426 MiB (10%)\nTitle                            : Ita Ac3 5.1\nLanguage                         : Italian\n\nAudio #2\nID                               : 3\nFormat                           : AC-3\nFormat/Info                      : Audio Coding 3\nMode extension                   : CM (complete main)\nCodec ID                         : A_AC3\nDuration                         : 1h 33mn\nBit rate mode                    : Constant\nBit rate                         : 640 Kbps\nChannel(s)                       : 6 channels\nChannel positions                : Front: L C R, Side: L R, LFE\nSampling rate                    : 48.0 KHz\nBit depth                        : 16 bits\nStream size                      : 426 MiB (10%)\nTitle                            : Eng Ac3 5.1\n\nAudio #3\nID                               : 4\nFormat                           : AC-3\nFormat/Info                      : Audio Coding 3\nMode extension                   : CM (complete main)\nCodec ID                         : A_AC3\nDuration                         : 1h 33mn\nBit rate mode                    : Constant\nBit rate                         : 640 Kbps\nChannel(s)                       : 6 channels\nChannel positions                : Front: L C R, Side: L R, LFE\nSampling rate                    : 48.0 KHz\nBit depth                        : 16 bits\nStream size                      : 426 MiB (10%)\nTitle                            : Esp Ac3 5.1\nLanguage                         : Spanish\n\nAudio #4\nID                               : 5\nFormat                           : AC-3\nFormat/Info                      : Audio Coding 3\nMode extension                   : CM (complete main)\nCodec ID                         : A_AC3\nDuration                         : 1h 33mn\nBit rate mode                    : Constant\nBit rate                         : 640 Kbps\nChannel(s)                       : 6 channels\nChannel positions                : Front: L C R, Side: L R, LFE\nSampling rate                    : 48.0 KHz\nBit depth                        : 16 bits\nStream size                      : 426 MiB (10%)\nTitle                            : Deu Ac3 5.1\nLanguage                         : German\n\nText #1\nID                               : 6\nFormat                           : UTF-8\nCodec ID                         : S_TEXT/UTF8\nCodec ID/Info                    : UTF-8 Plain Text\nTitle                            : Sub Ita\nLanguage                         : Italian\n\nText #2\nID                               : 7\nFormat                           : UTF-8\nCodec ID                         : S_TEXT/UTF8\nCodec ID/Info                    : UTF-8 Plain Text\nTitle                            : Sub Eng\n\nText #3\nID                               : 8\nFormat                           : UTF-8\nCodec ID                         : S_TEXT/UTF8\nCodec ID/Info                    : UTF-8 Plain Text\nTitle                            : Sub Cat\nLanguage                         : Catalan\n\nText #4\nID                               : 9\nFormat                           : UTF-8\nCodec ID                         : S_TEXT/UTF8\nCodec ID/Info                    : UTF-8 Plain Text\nTitle                            : Sub Esp\nLanguage                         : Spanish\n\nText #5\nID                               : 10\nFormat                           : UTF-8\nCodec ID                         : S_TEXT/UTF8\nCodec ID/Info                    : UTF-8 Plain Text\nTitle                            : Sub Deu\nLanguage                         : German\n\nMenu\n00:00:00.000                     : :01\n00:04:47.787                     : :02\n00:08:39.936                     : :03\n00:14:51.724                     : :04\n00:19:51.190                     : :05\n00:24:43.315                     : :06\n00:33:22.334                     : :07\n00:41:11.469                     : :08\n00:44:51.272                     : :09\n00:48:32.451                     : :10\n00:51:31.630                     : :11\n00:53:02.388                     : :12\n00:58:25.961                     : :13\n01:03:13.748                     : :14\n01:05:48.862                     : :15\n01:12:34.475                     : :16\n01:20:00.421                     : :17\n01:23:13.822                     : :18\n","torrent":{"xt":"urn:btih:b37b5f441967523cd71d40f94fe8c393366248f1","amp;dn":"Shrek+forever+after+%5BBDRip-720p-Mkv-Ita%2FEng%2FEsp%2FDeu-Ac3-MultiSub","amp;tr":["udp%3A%2F%2Ftracker.openbittorrent.com%3A80","udp%3A%2F%2Fopen.demonii.com%3A1337","udp%3A%2F%2Ftracker.coppersurfer.tk%3A6969","udp%3A%2F%2Fexodus.desync.com%3A6969"],"infoHash":"b37b5f441967523cd71d40f94fe8c393366248f1","infoHashBuffer":{"type":"Buffer","data":[179,123,95,68,25,103,82,60,215,29,64,249,79,232,195,147,54,98,72,241]},"announce":[],"urlList":[]}}